<mxfile host="65bd71144e" modified="2020-11-18T07:35:52.257Z" agent="5.0 (Macintosh; Intel Mac OS X 10_16_0) AppleWebKit/537.36 (KHTML, like Gecko) Code/1.51.1 Chrome/83.0.4103.122 Electron/9.3.3 Safari/537.36" version="13.6.5" etag="vuXGgZ7XErU4kU3xiwpJ">
    <diagram id="2H94LltUZABnt6yeDKiv" name="Page-1">
        <mxGraphModel dx="828" dy="479" grid="1" gridSize="10" guides="1" tooltips="1" connect="1" arrows="1" fold="1" page="1" pageScale="1" pageWidth="850" pageHeight="1100" math="0" shadow="0">
            <root>
                <mxCell id="0"/>
                <mxCell id="1" parent="0"/>
                <mxCell id="2" value="x,y" style="rounded=0;whiteSpace=wrap;html=1;" vertex="1" parent="1">
                    <mxGeometry x="80" y="80" width="160" height="160" as="geometry"/>
                </mxCell>
                <mxCell id="3" value="位置为(x, y) , 视距半径为m" style="text;html=1;align=center;verticalAlign=middle;resizable=0;points=[];autosize=1;" vertex="1" parent="1">
                    <mxGeometry x="80" y="30" width="160" height="20" as="geometry"/>
                </mxCell>
                <mxCell id="4" value="x-m, y- m" style="text;html=1;align=center;verticalAlign=middle;resizable=0;points=[];autosize=1;" vertex="1" parent="1">
                    <mxGeometry x="35" y="240" width="70" height="20" as="geometry"/>
                </mxCell>
                <mxCell id="5" value="x+m, y-m" style="text;html=1;align=center;verticalAlign=middle;resizable=0;points=[];autosize=1;" vertex="1" parent="1">
                    <mxGeometry x="210" y="240" width="70" height="20" as="geometry"/>
                </mxCell>
                <mxCell id="6" value="x-m, y+m" style="text;html=1;align=center;verticalAlign=middle;resizable=0;points=[];autosize=1;" vertex="1" parent="1">
                    <mxGeometry x="35" y="60" width="70" height="20" as="geometry"/>
                </mxCell>
                <mxCell id="7" value="" style="endArrow=classic;html=1;" edge="1" parent="1">
                    <mxGeometry width="50" height="50" relative="1" as="geometry">
                        <mxPoint x="320" y="80" as="sourcePoint"/>
                        <mxPoint x="360" y="80" as="targetPoint"/>
                    </mxGeometry>
                </mxCell>
                <mxCell id="8" value="" style="endArrow=classic;html=1;" edge="1" parent="1">
                    <mxGeometry width="50" height="50" relative="1" as="geometry">
                        <mxPoint x="320" y="80" as="sourcePoint"/>
                        <mxPoint x="320" y="40" as="targetPoint"/>
                    </mxGeometry>
                </mxCell>
                <mxCell id="9" value="x" style="text;html=1;align=center;verticalAlign=middle;resizable=0;points=[];autosize=1;" vertex="1" parent="1">
                    <mxGeometry x="340" y="80" width="20" height="20" as="geometry"/>
                </mxCell>
                <mxCell id="10" value="y" style="text;html=1;align=center;verticalAlign=middle;resizable=0;points=[];autosize=1;" vertex="1" parent="1">
                    <mxGeometry x="300" y="40" width="20" height="20" as="geometry"/>
                </mxCell>
                <mxCell id="11" value="x+m, y+m" style="text;html=1;align=center;verticalAlign=middle;resizable=0;points=[];autosize=1;" vertex="1" parent="1">
                    <mxGeometry x="210" y="60" width="70" height="20" as="geometry"/>
                </mxCell>
                <mxCell id="12" value="实体A的视距形状为矩形(半径为m)时，除了自身的实际位置(x,y)&lt;br&gt;还存在两个范围位置，一个是正向的+m, 一个是负向的-m&lt;br&gt;&lt;div&gt;1. 正向的postion为 (x+m, y+m)&lt;/div&gt;&lt;div&gt;2. 负向的position为(x-m, y-m)&lt;/div&gt;&lt;div&gt;&lt;br&gt;&lt;/div&gt;&lt;div&gt;当有实体B经过实体A时，&lt;/div&gt;" style="text;html=1;align=left;verticalAlign=middle;resizable=0;points=[];autosize=1;" vertex="1" parent="1">
                    <mxGeometry x="20" y="280" width="350" height="90" as="geometry"/>
                </mxCell>
            </root>
        </mxGraphModel>
    </diagram>
</mxfile>